<svg width="20" height="19" viewBox="0 0 20 19" fill="none" xmlns="http://www.w3.org/2000/svg">
<path d="M11.2484 0.894668L12.0797 3.44076C12.6308 5.12401 14.2128 6.26503 15.999 6.26503H18.6927C19.9563 6.26503 20.4837 7.87284 19.4575 8.60838L17.277 10.1785C15.8328 11.2205 15.2294 13.064 15.7805 14.752L16.6119 17.2981C17.0014 18.491 15.6285 19.4858 14.6023 18.7456L12.4218 17.1755C10.9776 16.1335 9.02031 16.1335 7.57611 17.1755L5.39556 18.7456C4.37417 19.4811 2.99647 18.491 3.38603 17.2981L4.21739 14.752C4.76847 13.0688 4.16514 11.2205 2.72094 10.1785L0.540382 8.60838C-0.48101 7.87284 0.0415627 6.26503 1.30524 6.26503H3.99886C5.78511 6.26503 7.36708 5.12401 7.91816 3.44076L8.74953 0.894668C9.13908 -0.298223 10.8398 -0.298223 11.2341 0.894668H11.2484Z" fill="#F75C02"/>
</svg>
